<svg width="169" height="159" viewBox="0 0 169 159" fill="none" xmlns="http://www.w3.org/2000/svg">
<path d="M84.5 0.203125C67.8895 0.203125 51.652 4.85381 37.8408 13.5671C24.0297 22.2803 13.2652 34.6648 6.90859 49.1544C0.552013 63.644 -1.11116 79.588 2.1294 94.9701C5.36996 110.352 13.3687 124.481 25.1141 135.571C36.8595 146.661 51.8241 154.214 68.1155 157.273C84.4069 160.333 101.293 158.763 116.639 152.761C131.986 146.759 145.102 136.595 154.331 123.555C163.559 110.515 168.484 95.1834 168.484 79.5C168.46 58.4763 159.604 38.3202 143.859 23.4541C128.114 8.5881 106.767 0.226213 84.5 0.203125ZM34.8401 135.341C39.8246 127.054 47.0463 120.162 55.7697 115.368C64.4931 110.573 74.4064 108.047 84.5 108.047C94.5937 108.047 104.507 110.573 113.23 115.368C121.954 120.162 129.175 127.054 134.16 135.341C120.26 146.392 102.672 152.453 84.5 152.453C66.3281 152.453 48.7403 146.392 34.8401 135.341ZM139.233 130.94C130.887 117.766 117.508 108.116 101.851 103.979C109.131 100.324 114.906 94.4749 118.259 87.363C121.612 80.2512 122.35 72.2849 120.355 64.7315C118.36 57.1782 113.747 50.4717 107.25 45.6791C100.753 40.8865 92.7449 38.2831 84.5 38.2831C76.2552 38.2831 68.2472 40.8865 61.75 45.6791C55.2529 50.4717 50.6399 57.1782 48.645 64.7315C46.65 72.2849 47.3877 80.2512 50.7407 87.363C54.0938 94.4749 59.8694 100.324 67.1489 103.979C51.4924 108.116 38.113 117.766 29.7674 130.94C18.9893 120.727 11.6578 107.727 8.69891 93.583C5.73997 79.4387 7.2862 64.7836 13.1424 51.4683C18.9985 38.1531 28.902 26.7748 41.6023 18.7701C54.3026 10.7654 69.2301 6.4934 84.5 6.4934C99.77 6.4934 114.698 10.7654 127.398 18.7701C140.098 26.7748 150.002 38.1531 155.858 51.4683C161.714 64.7836 163.26 79.4387 160.301 93.583C157.342 107.727 150.011 120.727 139.233 130.94ZM84.5 101.703C78.5202 101.703 72.6747 100.029 67.7027 96.8921C62.7307 93.7553 58.8555 89.2969 56.5671 84.0807C54.2788 78.8644 53.68 73.1246 54.8466 67.587C56.0132 62.0495 58.8928 56.9629 63.1211 52.9706C67.3495 48.9782 72.7367 46.2594 78.6016 45.1579C84.4665 44.0564 90.5456 44.6217 96.0702 46.7824C101.595 48.943 106.317 52.602 109.639 57.2965C112.961 61.991 114.734 67.5102 114.734 73.1563C114.734 80.7274 111.549 87.9884 105.879 93.3419C100.209 98.6955 92.5187 101.703 84.5 101.703Z" fill="black"/>
</svg>
