<svg width="21" height="20" viewBox="0 0 21 20" fill="none" xmlns="http://www.w3.org/2000/svg">
<path d="M19.9829 9.50003C19.9864 10.8199 19.678 12.1219 19.0829 13.3C18.3773 14.7118 17.2927 15.8992 15.9504 16.7293C14.6081 17.5594 13.0612 17.9994 11.4829 18C10.163 18.0035 8.86103 17.6951 7.68291 17.1L1.98291 19L3.88291 13.3C3.28784 12.1219 2.97947 10.8199 2.98291 9.50003C2.98352 7.92179 3.42352 6.37488 4.25363 5.03258C5.08374 3.69028 6.27116 2.6056 7.68291 1.90003C8.86103 1.30496 10.163 0.996587 11.4829 1.00003H11.9829C14.0673 1.11502 16.036 1.99479 17.5121 3.47089C18.9881 4.94699 19.8679 6.91568 19.9829 9.00003V9.50003Z" stroke="white" stroke-width="2" stroke-linecap="round" stroke-linejoin="round"/>
</svg>
