<svg width="19" height="21" viewBox="0 0 19 21" fill="none" xmlns="http://www.w3.org/2000/svg">
<path d="M16.9643 9.1875H15.9464V6.23438C15.9464 2.79727 13.054 0 9.5 0C5.94598 0 3.05357 2.79727 3.05357 6.23438V9.1875H2.03571C0.91183 9.1875 0 10.0693 0 11.1562V19.0312C0 20.1182 0.91183 21 2.03571 21H16.9643C18.0882 21 19 20.1182 19 19.0312V11.1562C19 10.0693 18.0882 9.1875 16.9643 9.1875ZM12.5536 9.1875H6.44643V6.23438C6.44643 4.60605 7.81629 3.28125 9.5 3.28125C11.1837 3.28125 12.5536 4.60605 12.5536 6.23438V9.1875Z" fill="white"/>
</svg>
